{"accessors":[{"bufferView":0,"byteOffset":0,"componentType":5126,"count":4,"max":[-0.016,0.0096,0.0],"min":[-0.016,0.0,-0.032],"type":"VEC3"},{"bufferView":0,"byteOffset":48,"componentType":5126,"count":4,"max":[0.0,0.0096,0.0],"min":[-0.016,0.0,0.0],"type":"VEC3"},{"bufferView":0,"byteOffset":96,"componentType":5126,"count":164,"max":[0.0,0.0096,0.0],"min":[-0.016,0.0096,-0.032],"type":"VEC3"},{"bufferView":0,"byteOffset":2064,"componentType":5126,"count":4,"max":[0.0,0.0096,-0.032],"min":[-0.016,0.0,-0.032],"type":"VEC3"},{"bufferView":0,"byteOffset":2112,"componentType":5126,"count":4,"max":[0.0,0.0,0.0],"min":[-0.016,0.0,-0.032],"type":"VEC3"},{"bufferView":0,"byteOffset":2160,"componentType":5126,"count":4,"max":[0.016,0.0096,0.0],"min":[0.0,0.0,0.0],"type":"VEC3"},{"bufferView":0,"byteOffset":2208,"componentType":5126,"count":164,"max":[0.016,0.0096,0.0],"min":[0.0,0.0096,-0.032],"type":"VEC3"},{"bufferView":0,"byteOffset":4176,"componentType":5126,"count":5,"max":[0.008,0.019,-0.024],"min":[-0.008,0.0096,-0.024],"type":"VEC3"},{"bufferView":0,"byteOffset":4236,"componentType":5126,"count":4,"max":[-0.008,0.019,-0.008],"min":[-0.008,0.0096,-0.024],"type":"VEC3"},{"bufferView":0,"byteOffset":4284,"componentType":5126,"count":5,"max":[0.008,0.019,-0.008],"min":[-0.008,0.0096,-0.008],"type":"VEC3"},{"bufferView":0,"byteOffset":4344,"componentType":5126,"count":54,"max":[-0.0096,0.0114,-0.00161749870216467],"min":[-0.014400000000000002,0.0096,-0.00638250129783533],"type":"VEC3"},{"bufferView":0,"byteOffset":4992,"componentType":5126,"count":54,"max":[-0.0096,0.0114,-0.00961749870216467],"min":[-0.014400000000000002,0.0096,-0.01438250129783533],"type":"VEC3"},{"bufferView":0,"byteOffset":5640,"componentType":5126,"count":54,"max":[-0.0015999999999999997,0.0114,-0.00161749870216467],"min":[-0.0064,0.0096,-0.00638250129783533],"type":"VEC3"},{"bufferView":0,"byteOffset":6288,"componentType":5126,"count":54,"max":[-0.0096,0.0114,-0.017617498702164674],"min":[-0.014400000000000002,0.0096,-0.02238250129783533],"type":"VEC3"},{"bufferView":0,"byteOffset":6936,"componentType":5126,"count":54,"max":[-0.0096,0.0114,-0.025617498702164674],"min":[-0.014400000000000002,0.0096,-0.03038250129783533],"type":"VEC3"},{"bufferView":0,"byteOffset":7584,"componentType":5126,"count":54,"max":[-0.0015999999999999997,0.0114,-0.025617498702164674],"min":[-0.0064,0.0096,-0.03038250129783533],"type":"VEC3"},{"bufferView":0,"byteOffset":8232,"componentType":5126,"count":4,"max":[0.016,0.0096,-0.032],"min":[0.0,0.0,-0.032],"type":"VEC3"},{"bufferView":0,"byteOffset":8280,"componentType":5126,"count":4,"max":[0.016,0.0,0.0],"min":[0.0,0.0,-0.032],"type":"VEC3"},{"bufferView":0,"byteOffset":8328,"componentType":5126,"count":4,"max":[0.016,0.0096,0.0],"min":[0.016,0.0,-0.032],"type":"VEC3"},{"bufferView":0,"byteOffset":8376,"componentType":5126,"count":4,"max":[0.008,0.019,-0.008],"min":[0.008,0.0096,-0.024],"type":"VEC3"},{"bufferView":0,"byteOffset":8424,"componentType":5126,"count":54,"max":[0.0064,0.0114,-0.00161749870216467],"min":[0.0016,0.0096,-0.00638250129783533],"type":"VEC3"},{"bufferView":0,"byteOffset":9072,"componentType":5126,"count":54,"max":[0.014400000000000002,0.0114,-0.00161749870216467],"min":[0.0096,0.0096,-0.00638250129783533],"type":"VEC3"},{"bufferView":0,"byteOffset":9720,"componentType":5126,"count":54,"max":[0.014400000000000002,0.0114,-0.00961749870216467],"min":[0.0096,0.0096,-0.01438250129783533],"type":"VEC3"},{"bufferView":0,"byteOffset":10368,"componentType":5126,"count":54,"max":[0.0064,0.0114,-0.025617498702164674],"min":[0.0016,0.0096,-0.03038250129783533],"type":"VEC3"},{"bufferView":0,"byteOffset":11016,"componentType":5126,"count":54,"max":[0.014400000000000002,0.0114,-0.017617498702164674],"min":[0.0096,0.0096,-0.02238250129783533],"type":"VEC3"},{"bufferView":0,"byteOffset":11664,"componentType":5126,"count":54,"max":[0.014400000000000002,0.0114,-0.025617498702164674],"min":[0.0096,0.0096,-0.03038250129783533],"type":"VEC3"},{"bufferView":0,"byteOffset":12312,"componentType":5126,"count":4,"max":[0.008,0.019100000000000004,-0.024],"min":[-0.008,0.019,-0.024],"type":"VEC3"},{"bufferView":0,"byteOffset":12360,"componentType":5126,"count":4,"max":[-0.008,0.019100000000000004,-0.008],"min":[-0.008,0.019,-0.024],"type":"VEC3"},{"bufferView":0,"byteOffset":12408,"componentType":5126,"count":4,"max":[0.008,0.019100000000000004,-0.008],"min":[-0.008,0.019,-0.008],"type":"VEC3"},{"bufferView":0,"byteOffset":12456,"componentType":5126,"count":26,"max":[-0.0096,0.0114,-0.00161749870216467],"min":[-0.014400000000000002,0.0114,-0.00638250129783533],"type":"VEC3"},{"bufferView":0,"byteOffset":12768,"componentType":5126,"count":26,"max":[-0.0096,0.0114,-0.00961749870216467],"min":[-0.014400000000000002,0.0114,-0.01438250129783533],"type":"VEC3"},{"bufferView":0,"byteOffset":13080,"componentType":5126,"count":26,"max":[-0.0015999999999999997,0.0114,-0.00161749870216467],"min":[-0.0064,0.0114,-0.00638250129783533],"type":"VEC3"},{"bufferView":0,"byteOffset":13392,"componentType":5126,"count":26,"max":[-0.0096,0.0114,-0.017617498702164674],"min":[-0.014400000000000002,0.0114,-0.02238250129783533],"type":"VEC3"},{"bufferView":0,"byteOffset":13704,"componentType":5126,"count":26,"max":[-0.0096,0.0114,-0.025617498702164674],"min":[-0.014400000000000002,0.0114,-0.03038250129783533],"type":"VEC3"},{"bufferView":0,"byteOffset":14016,"componentType":5126,"count":26,"max":[-0.0015999999999999997,0.0114,-0.025617498702164674],"min":[-0.0064,0.0114,-0.03038250129783533],"type":"VEC3"},{"bufferView":0,"byteOffset":14328,"componentType":5126,"count":4,"max":[0.008,0.019100000000000004,-0.008],"min":[0.008,0.019,-0.024],"type":"VEC3"},{"bufferView":0,"byteOffset":14376,"componentType":5126,"count":26,"max":[0.0064,0.0114,-0.00161749870216467],"min":[0.0016,0.0114,-0.00638250129783533],"type":"VEC3"},{"bufferView":0,"byteOffset":14688,"componentType":5126,"count":26,"max":[0.014400000000000002,0.0114,-0.00161749870216467],"min":[0.0096,0.0114,-0.00638250129783533],"type":"VEC3"},{"bufferView":0,"byteOffset":15000,"componentType":5126,"count":26,"max":[0.014400000000000002,0.0114,-0.00961749870216467],"min":[0.0096,0.0114,-0.01438250129783533],"type":"VEC3"},{"bufferView":0,"byteOffset":15312,"componentType":5126,"count":26,"max":[0.0064,0.0114,-0.025617498702164674],"min":[0.0016,0.0114,-0.03038250129783533],"type":"VEC3"},{"bufferView":0,"byteOffset":15624,"componentType":5126,"count":26,"max":[0.014400000000000002,0.0114,-0.017617498702164674],"min":[0.0096,0.0114,-0.02238250129783533],"type":"VEC3"},{"bufferView":0,"byteOffset":15936,"componentType":5126,"count":26,"max":[0.014400000000000002,0.0114,-0.025617498702164674],"min":[0.0096,0.0114,-0.03038250129783533],"type":"VEC3"},{"bufferView":0,"byteOffset":16248,"componentType":5126,"count":5,"max":[0.008,0.028,-0.024],"min":[-0.008,0.019100000000000004,-0.024],"type":"VEC3"},{"bufferView":0,"byteOffset":16308,"componentType":5126,"count":4,"max":[-0.008,0.028,-0.008],"min":[-0.008,0.019100000000000004,-0.024],"type":"VEC3"},{"bufferView":0,"byteOffset":16356,"componentType":5126,"count":5,"max":[0.008,0.028,-0.008],"min":[-0.008,0.019100000000000004,-0.008],"type":"VEC3"},{"bufferView":0,"byteOffset":16416,"componentType":5126,"count":4,"max":[0.008,0.028,-0.008],"min":[0.008,0.019100000000000004,-0.024],"type":"VEC3"},{"bufferView":0,"byteOffset":16464,"componentType":5126,"count":8,"max":[0.016,0.028,0.0],"min":[0.0,0.028,-0.032],"type":"VEC3"},{"bufferView":0,"byteOffset":16560,"componentType":5126,"count":8,"max":[0.0,0.028,0.0],"min":[-0.016,0.028,-0.032],"type":"VEC3"},{"bufferView":0,"byteOffset":16656,"componentType":5126,"count":4,"max":[0.016,0.0376,-0.032],"min":[0.0,0.028,-0.032],"type":"VEC3"},{"bufferView":0,"byteOffset":16704,"componentType":5126,"count":9,"max":[0.016,0.0376,0.0],"min":[0.016,0.028,-0.032],"type":"VEC3"},{"bufferView":0,"byteOffset":16812,"componentType":5126,"count":4,"max":[0.016,0.0376,0.0],"min":[0.0,0.028,0.0],"type":"VEC3"},{"bufferView":0,"byteOffset":16860,"componentType":5126,"count":4,"max":[0.0,0.0376,-0.032],"min":[-0.016,0.028,-0.032],"type":"VEC3"},{"bufferView":0,"byteOffset":16908,"componentType":5126,"count":4,"max":[0.0,0.0376,0.0],"min":[-0.016,0.028,0.0],"type":"VEC3"},{"bufferView":0,"byteOffset":16956,"componentType":5126,"count":9,"max":[-0.016,0.0376,0.0],"min":[-0.016,0.028,-0.032],"type":"VEC3"},{"bufferView":0,"byteOffset":17064,"componentType":5126,"count":56,"max":[0.016,0.0376,-0.024],"min":[0.0,0.0376,-0.032],"type":"VEC3"},{"bufferView":0,"byteOffset":17736,"componentType":5126,"count":56,"max":[0.016,0.0376,0.0],"min":[0.0,0.0376,-0.008],"type":"VEC3"},{"bufferView":0,"byteOffset":18408,"componentType":5126,"count":14,"max":[0.024,0.0471,-0.008],"min":[-0.024,0.0375,-0.008],"type":"VEC3"},{"bufferView":0,"byteOffset":18576,"componentType":5126,"count":4,"max":[0.024,0.0375,-0.008],"min":[0.016,0.0375,-0.016],"type":"VEC3"},{"bufferView":0,"byteOffset":18624,"componentType":5126,"count":4,"max":[0.024,0.0375,-0.016],"min":[0.016,0.0375,-0.024],"type":"VEC3"},{"bufferView":0,"byteOffset":18672,"componentType":5126,"count":14,"max":[0.024,0.0471,-0.024],"min":[-0.024,0.0375,-0.024],"type":"VEC3"},{"bufferView":0,"byteOffset":18840,"componentType":5126,"count":56,"max":[0.0,0.0376,-0.024],"min":[-0.016,0.0376,-0.032],"type":"VEC3"},{"bufferView":0,"byteOffset":19512,"componentType":5126,"count":56,"max":[0.0,0.0376,0.0],"min":[-0.016,0.0376,-0.008],"type":"VEC3"},{"bufferView":0,"byteOffset":20184,"componentType":5126,"count":4,"max":[-0.016,0.0375,-0.008],"min":[-0.024,0.0375,-0.016],"type":"VEC3"},{"bufferView":0,"byteOffset":20232,"componentType":5126,"count":4,"max":[-0.016,0.0375,-0.016],"min":[-0.024,0.0375,-0.024],"type":"VEC3"},{"bufferView":0,"byteOffset":20280,"componentType":5126,"count":54,"max":[0.0064,0.0394,-0.025617498702164674],"min":[0.0016,0.0376,-0.03038250129783533],"type":"VEC3"},{"bufferView":0,"byteOffset":20928,"componentType":5126,"count":54,"max":[0.014400000000000002,0.0394,-0.025617498702164674],"min":[0.0096,0.0376,-0.03038250129783533],"type":"VEC3"},{"bufferView":0,"byteOffset":21576,"componentType":5126,"count":54,"max":[0.0064,0.0394,-0.00161749870216467],"min":[0.0016,0.0376,-0.00638250129783533],"type":"VEC3"},{"bufferView":0,"byteOffset":22224,"componentType":5126,"count":54,"max":[0.014400000000000002,0.0394,-0.00161749870216467],"min":[0.0096,0.0376,-0.00638250129783533],"type":"VEC3"},{"bufferView":0,"byteOffset":22872,"componentType":5126,"count":4,"max":[0.024,0.0471,-0.008],"min":[0.024,0.0375,-0.016],"type":"VEC3"},{"bufferView":0,"byteOffset":22920,"componentType":5126,"count":30,"max":[0.024,0.0471,-0.008],"min":[0.016,0.0471,-0.016],"type":"VEC3"},{"bufferView":0,"byteOffset":23280,"componentType":5126,"count":14,"max":[0.016,0.056600000000000007,0.0],"min":[0.016,0.047,-0.032],"type":"VEC3"},{"bufferView":0,"byteOffset":23448,"componentType":5126,"count":4,"max":[0.016,0.047,0.0],"min":[0.0,0.047,-0.008],"type":"VEC3"},{"bufferView":0,"byteOffset":23496,"componentType":5126,"count":4,"max":[0.0,0.047,0.0],"min":[-0.016,0.047,-0.008],"type":"VEC3"},{"bufferView":0,"byteOffset":23544,"componentType":5126,"count":14,"max":[-0.016,0.056600000000000007,0.0],"min":[-0.016,0.047,-0.032],"type":"VEC3"},{"bufferView":0,"byteOffset":23712,"componentType":5126,"count":30,"max":[-0.016,0.0471,-0.008],"min":[-0.024,0.0471,-0.016],"type":"VEC3"},{"bufferView":0,"byteOffset":24072,"componentType":5126,"count":4,"max":[-0.024,0.0471,-0.008],"min":[-0.024,0.0375,-0.016],"type":"VEC3"},{"bufferView":0,"byteOffset":24120,"componentType":5126,"count":4,"max":[0.024,0.0471,-0.016],"min":[0.024,0.0375,-0.024],"type":"VEC3"},{"bufferView":0,"byteOffset":24168,"componentType":5126,"count":30,"max":[0.024,0.0471,-0.016],"min":[0.016,0.0471,-0.024],"type":"VEC3"},{"bufferView":0,"byteOffset":24528,"componentType":5126,"count":4,"max":[0.016,0.047,-0.024],"min":[0.0,0.047,-0.032],"type":"VEC3"},{"bufferView":0,"byteOffset":24576,"componentType":5126,"count":4,"max":[0.0,0.047,-0.024],"min":[-0.016,0.047,-0.032],"type":"VEC3"},{"bufferView":0,"byteOffset":24624,"componentType":5126,"count":30,"max":[-0.016,0.0471,-0.016],"min":[-0.024,0.0471,-0.024],"type":"VEC3"},{"bufferView":0,"byteOffset":24984,"componentType":5126,"count":4,"max":[-0.024,0.0471,-0.016],"min":[-0.024,0.0375,-0.024],"type":"VEC3"},{"bufferView":0,"byteOffset":25032,"componentType":5126,"count":54,"max":[-0.0096,0.0394,-0.025617498702164674],"min":[-0.014400000000000002,0.0376,-0.03038250129783533],"type":"VEC3"},{"bufferView":0,"byteOffset":25680,"componentType":5126,"count":54,"max":[-0.0015999999999999997,0.0394,-0.025617498702164674],"min":[-0.0064,0.0376,-0.03038250129783533],"type":"VEC3"},{"bufferView":0,"byteOffset":26328,"componentType":5126,"count":54,"max":[-0.0096,0.0394,-0.00161749870216467],"min":[-0.014400000000000002,0.0376,-0.00638250129783533],"type":"VEC3"},{"bufferView":0,"byteOffset":26976,"componentType":5126,"count":54,"max":[-0.0015999999999999997,0.0394,-0.00161749870216467],"min":[-0.0064,0.0376,-0.00638250129783533],"type":"VEC3"},{"bufferView":0,"byteOffset":27624,"componentType":5126,"count":26,"max":[0.0064,0.0394,-0.025617498702164674],"min":[0.0016,0.0394,-0.03038250129783533],"type":"VEC3"},{"bufferView":0,"byteOffset":27936,"componentType":5126,"count":26,"max":[0.014400000000000002,0.0394,-0.025617498702164674],"min":[0.0096,0.0394,-0.03038250129783533],"type":"VEC3"},{"bufferView":0,"byteOffset":28248,"componentType":5126,"count":26,"max":[0.0064,0.0394,-0.00161749870216467],"min":[0.0016,0.0394,-0.00638250129783533],"type":"VEC3"},{"bufferView":0,"byteOffset":28560,"componentType":5126,"count":26,"max":[0.014400000000000002,0.0394,-0.00161749870216467],"min":[0.0096,0.0394,-0.00638250129783533],"type":"VEC3"},{"bufferView":0,"byteOffset":28872,"componentType":5126,"count":54,"max":[0.0224,0.0489,-0.00961749870216467],"min":[0.0176,0.0471,-0.01438250129783533],"type":"VEC3"},{"bufferView":0,"byteOffset":29520,"componentType":5126,"count":56,"max":[0.016,0.056600000000000007,0.0],"min":[0.0,0.056600000000000007,-0.008],"type":"VEC3"},{"bufferView":0,"byteOffset":30192,"componentType":5126,"count":13,"max":[0.024,0.06609999999999999,-0.008],"min":[-0.024,0.0565,-0.008],"type":"VEC3"},{"bufferView":0,"byteOffset":30348,"componentType":5126,"count":4,"max":[0.024,0.0565,-0.008],"min":[0.016,0.0565,-0.016],"type":"VEC3"},{"bufferView":0,"byteOffset":30396,"componentType":5126,"count":4,"max":[0.024,0.0565,-0.016],"min":[0.016,0.0565,-0.024],"type":"VEC3"},{"bufferView":0,"byteOffset":30444,"componentType":5126,"count":13,"max":[0.024,0.06609999999999999,-0.024],"min":[-0.024,0.0565,-0.024],"type":"VEC3"},{"bufferView":0,"byteOffset":30600,"componentType":5126,"count":56,"max":[0.016,0.056600000000000007,-0.024],"min":[0.0,0.056600000000000007,-0.032],"type":"VEC3"},{"bufferView":0,"byteOffset":31272,"componentType":5126,"count":4,"max":[0.016,0.056600000000000007,-0.032],"min":[0.0,0.047,-0.032],"type":"VEC3"},{"bufferView":0,"byteOffset":31320,"componentType":5126,"count":4,"max":[0.016,0.056600000000000007,0.0],"min":[0.0,0.047,0.0],"type":"VEC3"},{"bufferView":0,"byteOffset":31368,"componentType":5126,"count":4,"max":[0.0,0.056600000000000007,0.0],"min":[-0.016,0.047,0.0],"type":"VEC3"},{"bufferView":0,"byteOffset":31416,"componentType":5126,"count":56,"max":[0.0,0.056600000000000007,0.0],"min":[-0.016,0.056600000000000007,-0.008],"type":"VEC3"},{"bufferView":0,"byteOffset":32088,"componentType":5126,"count":4,"max":[-0.016,0.0565,-0.008],"min":[-0.024,0.0565,-0.016],"type":"VEC3"},{"bufferView":0,"byteOffset":32136,"componentType":5126,"count":4,"max":[-0.016,0.0565,-0.016],"min":[-0.024,0.0565,-0.024],"type":"VEC3"},{"bufferView":0,"byteOffset":32184,"componentType":5126,"count":56,"max":[0.0,0.056600000000000007,-0.024],"min":[-0.016,0.056600000000000007,-0.032],"type":"VEC3"},{"bufferView":0,"byteOffset":32856,"componentType":5126,"count":4,"max":[0.0,0.056600000000000007,-0.032],"min":[-0.016,0.047,-0.032],"type":"VEC3"},{"bufferView":0,"byteOffset":32904,"componentType":5126,"count":54,"max":[-0.0176,0.0489,-0.00961749870216467],"min":[-0.0224,0.0471,-0.01438250129783533],"type":"VEC3"},{"bufferView":0,"byteOffset":33552,"componentType":5126,"count":54,"max":[0.0224,0.0489,-0.017617498702164674],"min":[0.0176,0.0471,-0.02238250129783533],"type":"VEC3"},{"bufferView":0,"byteOffset":34200,"componentType":5126,"count":54,"max":[-0.0176,0.0489,-0.017617498702164674],"min":[-0.0224,0.0471,-0.02238250129783533],"type":"VEC3"},{"bufferView":0,"byteOffset":34848,"componentType":5126,"count":26,"max":[-0.0096,0.0394,-0.025617498702164674],"min":[-0.014400000000000002,0.0394,-0.03038250129783533],"type":"VEC3"},{"bufferView":0,"byteOffset":35160,"componentType":5126,"count":26,"max":[-0.0015999999999999997,0.0394,-0.025617498702164674],"min":[-0.0064,0.0394,-0.03038250129783533],"type":"VEC3"},{"bufferView":0,"byteOffset":35472,"componentType":5126,"count":26,"max":[-0.0096,0.0394,-0.00161749870216467],"min":[-0.014400000000000002,0.0394,-0.00638250129783533],"type":"VEC3"},{"bufferView":0,"byteOffset":35784,"componentType":5126,"count":26,"max":[-0.0015999999999999997,0.0394,-0.00161749870216467],"min":[-0.0064,0.0394,-0.00638250129783533],"type":"VEC3"},{"bufferView":0,"byteOffset":36096,"componentType":5126,"count":26,"max":[0.0224,0.0489,-0.00961749870216467],"min":[0.0176,0.0489,-0.01438250129783533],"type":"VEC3"},{"bufferView":0,"byteOffset":36408,"componentType":5126,"count":54,"max":[0.0064,0.0584,-0.00161749870216467],"min":[0.0016,0.056600000000000007,-0.00638250129783533],"type":"VEC3"},{"bufferView":0,"byteOffset":37056,"componentType":5126,"count":54,"max":[0.014400000000000002,0.0584,-0.00161749870216467],"min":[0.0096,0.056600000000000007,-0.00638250129783533],"type":"VEC3"},{"bufferView":0,"byteOffset":37704,"componentType":5126,"count":4,"max":[0.024,0.06609999999999999,-0.008],"min":[0.024,0.0565,-0.016],"type":"VEC3"},{"bufferView":0,"byteOffset":37752,"componentType":5126,"count":56,"max":[0.024,0.06609999999999999,-0.008],"min":[0.008,0.06609999999999999,-0.016],"type":"VEC3"},{"bufferView":0,"byteOffset":38424,"componentType":5126,"count":4,"max":[0.008,0.06609999999999999,-0.008],"min":[-0.008,0.066,-0.008],"type":"VEC3"},{"bufferView":0,"byteOffset":38472,"componentType":5126,"count":56,"max":[-0.008,0.06609999999999999,-0.008],"min":[-0.024,0.06609999999999999,-0.016],"type":"VEC3"},{"bufferView":0,"byteOffset":39144,"componentType":5126,"count":4,"max":[-0.024,0.06609999999999999,-0.008],"min":[-0.024,0.0565,-0.016],"type":"VEC3"},{"bufferView":0,"byteOffset":39192,"componentType":5126,"count":4,"max":[0.024,0.06609999999999999,-0.016],"min":[0.024,0.0565,-0.024],"type":"VEC3"},{"bufferView":0,"byteOffset":39240,"componentType":5126,"count":56,"max":[0.024,0.06609999999999999,-0.016],"min":[0.008,0.06609999999999999,-0.024],"type":"VEC3"},{"bufferView":0,"byteOffset":39912,"componentType":5126,"count":4,"max":[0.008,0.06609999999999999,-0.024],"min":[-0.008,0.066,-0.024],"type":"VEC3"},{"bufferView":0,"byteOffset":39960,"componentType":5126,"count":56,"max":[-0.008,0.06609999999999999,-0.016],"min":[-0.024,0.06609999999999999,-0.024],"type":"VEC3"},{"bufferView":0,"byteOffset":40632,"componentType":5126,"count":4,"max":[-0.024,0.06609999999999999,-0.016],"min":[-0.024,0.0565,-0.024],"type":"VEC3"},{"bufferView":0,"byteOffset":40680,"componentType":5126,"count":54,"max":[0.0064,0.0584,-0.025617498702164674],"min":[0.0016,0.056600000000000007,-0.03038250129783533],"type":"VEC3"},{"bufferView":0,"byteOffset":41328,"componentType":5126,"count":54,"max":[0.014400000000000002,0.0584,-0.025617498702164674],"min":[0.0096,0.056600000000000007,-0.03038250129783533],"type":"VEC3"},{"bufferView":0,"byteOffset":41976,"componentType":5126,"count":54,"max":[-0.0096,0.0584,-0.00161749870216467],"min":[-0.014400000000000002,0.056600000000000007,-0.00638250129783533],"type":"VEC3"},{"bufferView":0,"byteOffset":42624,"componentType":5126,"count":54,"max":[-0.0015999999999999997,0.0584,-0.00161749870216467],"min":[-0.0064,0.056600000000000007,-0.00638250129783533],"type":"VEC3"},{"bufferView":0,"byteOffset":43272,"componentType":5126,"count":54,"max":[-0.0096,0.0584,-0.025617498702164674],"min":[-0.014400000000000002,0.056600000000000007,-0.03038250129783533],"type":"VEC3"},{"bufferView":0,"byteOffset":43920,"componentType":5126,"count":54,"max":[-0.0015999999999999997,0.0584,-0.025617498702164674],"min":[-0.0064,0.056600000000000007,-0.03038250129783533],"type":"VEC3"},{"bufferView":0,"byteOffset":44568,"componentType":5126,"count":26,"max":[-0.0176,0.0489,-0.00961749870216467],"min":[-0.0224,0.0489,-0.01438250129783533],"type":"VEC3"},{"bufferView":0,"byteOffset":44880,"componentType":5126,"count":26,"max":[0.0224,0.0489,-0.017617498702164674],"min":[0.0176,0.0489,-0.02238250129783533],"type":"VEC3"},{"bufferView":0,"byteOffset":45192,"componentType":5126,"count":26,"max":[-0.0176,0.0489,-0.017617498702164674],"min":[-0.0224,0.0489,-0.02238250129783533],"type":"VEC3"},{"bufferView":0,"byteOffset":45504,"componentType":5126,"count":26,"max":[0.0064,0.0584,-0.00161749870216467],"min":[0.0016,0.0584,-0.00638250129783533],"type":"VEC3"},{"bufferView":0,"byteOffset":45816,"componentType":5126,"count":26,"max":[0.014400000000000002,0.0584,-0.00161749870216467],"min":[0.0096,0.0584,-0.00638250129783533],"type":"VEC3"},{"bufferView":0,"byteOffset":46128,"componentType":5126,"count":5,"max":[0.008,0.0756,-0.008],"min":[0.008,0.06609999999999999,-0.024],"type":"VEC3"},{"bufferView":0,"byteOffset":46188,"componentType":5126,"count":54,"max":[0.0144,0.0679,-0.00961749870216467],"min":[0.009600000000000001,0.06609999999999999,-0.01438250129783533],"type":"VEC3"},{"bufferView":0,"byteOffset":46836,"componentType":5126,"count":54,"max":[0.0224,0.0679,-0.00961749870216467],"min":[0.0176,0.06609999999999999,-0.01438250129783533],"type":"VEC3"},{"bufferView":0,"byteOffset":47484,"componentType":5126,"count":4,"max":[0.008,0.0756,-0.008],"min":[-0.008,0.06609999999999999,-0.008],"type":"VEC3"},{"bufferView":0,"byteOffset":47532,"componentType":5126,"count":5,"max":[-0.008,0.0756,-0.008],"min":[-0.008,0.06609999999999999,-0.024],"type":"VEC3"},{"bufferView":0,"byteOffset":47592,"componentType":5126,"count":54,"max":[-0.0176,0.0679,-0.00961749870216467],"min":[-0.0224,0.06609999999999999,-0.01438250129783533],"type":"VEC3"},{"bufferView":0,"byteOffset":48240,"componentType":5126,"count":54,"max":[-0.0096,0.0679,-0.00961749870216467],"min":[-0.014400000000000002,0.06609999999999999,-0.01438250129783533],"type":"VEC3"},{"bufferView":0,"byteOffset":48888,"componentType":5126,"count":54,"max":[0.0144,0.0679,-0.017617498702164674],"min":[0.009600000000000001,0.06609999999999999,-0.02238250129783533],"type":"VEC3"},{"bufferView":0,"byteOffset":49536,"componentType":5126,"count":54,"max":[0.0224,0.0679,-0.017617498702164674],"min":[0.0176,0.06609999999999999,-0.02238250129783533],"type":"VEC3"},{"bufferView":0,"byteOffset":50184,"componentType":5126,"count":4,"max":[0.008,0.0756,-0.024],"min":[-0.008,0.06609999999999999,-0.024],"type":"VEC3"},{"bufferView":0,"byteOffset":50232,"componentType":5126,"count":54,"max":[-0.0176,0.0679,-0.017617498702164674],"min":[-0.0224,0.06609999999999999,-0.02238250129783533],"type":"VEC3"},{"bufferView":0,"byteOffset":50880,"componentType":5126,"count":54,"max":[-0.0096,0.0679,-0.017617498702164674],"min":[-0.014400000000000002,0.06609999999999999,-0.02238250129783533],"type":"VEC3"},{"bufferView":0,"byteOffset":51528,"componentType":5126,"count":26,"max":[0.0064,0.0584,-0.025617498702164674],"min":[0.0016,0.0584,-0.03038250129783533],"type":"VEC3"},{"bufferView":0,"byteOffset":51840,"componentType":5126,"count":26,"max":[0.014400000000000002,0.0584,-0.025617498702164674],"min":[0.0096,0.0584,-0.03038250129783533],"type":"VEC3"},{"bufferView":0,"byteOffset":52152,"componentType":5126,"count":26,"max":[-0.0096,0.0584,-0.00161749870216467],"min":[-0.014400000000000002,0.0584,-0.00638250129783533],"type":"VEC3"},{"bufferView":0,"byteOffset":52464,"componentType":5126,"count":26,"max":[-0.0015999999999999997,0.0584,-0.00161749870216467],"min":[-0.0064,0.0584,-0.00638250129783533],"type":"VEC3"},{"bufferView":0,"byteOffset":52776,"componentType":5126,"count":26,"max":[-0.0096,0.0584,-0.025617498702164674],"min":[-0.014400000000000002,0.0584,-0.03038250129783533],"type":"VEC3"},{"bufferView":0,"byteOffset":53088,"componentType":5126,"count":26,"max":[-0.0015999999999999997,0.0584,-0.025617498702164674],"min":[-0.0064,0.0584,-0.03038250129783533],"type":"VEC3"},{"bufferView":0,"byteOffset":53400,"componentType":5126,"count":108,"max":[0.008,0.0756,-0.008],"min":[-0.008,0.0756,-0.024],"type":"VEC3"},{"bufferView":0,"byteOffset":54696,"componentType":5126,"count":26,"max":[0.0144,0.0679,-0.00961749870216467],"min":[0.009600000000000001,0.0679,-0.01438250129783533],"type":"VEC3"},{"bufferView":0,"byteOffset":55008,"componentType":5126,"count":26,"max":[0.0224,0.0679,-0.00961749870216467],"min":[0.0176,0.0679,-0.01438250129783533],"type":"VEC3"},{"bufferView":0,"byteOffset":55320,"componentType":5126,"count":26,"max":[-0.0176,0.0679,-0.00961749870216467],"min":[-0.0224,0.0679,-0.01438250129783533],"type":"VEC3"},{"bufferView":0,"byteOffset":55632,"componentType":5126,"count":26,"max":[-0.0096,0.0679,-0.00961749870216467],"min":[-0.014400000000000002,0.0679,-0.01438250129783533],"type":"VEC3"},{"bufferView":0,"byteOffset":55944,"componentType":5126,"count":26,"max":[0.0144,0.0679,-0.017617498702164674],"min":[0.009600000000000001,0.0679,-0.02238250129783533],"type":"VEC3"},{"bufferView":0,"byteOffset":56256,"componentType":5126,"count":26,"max":[0.0224,0.0679,-0.017617498702164674],"min":[0.0176,0.0679,-0.02238250129783533],"type":"VEC3"},{"bufferView":0,"byteOffset":56568,"componentType":5126,"count":26,"max":[-0.0176,0.0679,-0.017617498702164674],"min":[-0.0224,0.0679,-0.02238250129783533],"type":"VEC3"},{"bufferView":0,"byteOffset":56880,"componentType":5126,"count":26,"max":[-0.0096,0.0679,-0.017617498702164674],"min":[-0.014400000000000002,0.0679,-0.02238250129783533],"type":"VEC3"},{"bufferView":0,"byteOffset":57192,"componentType":5126,"count":54,"max":[-0.0015999999999999997,0.07740000000000001,-0.00961749870216467],"min":[-0.0064,0.0756,-0.01438250129783533],"type":"VEC3"},{"bufferView":0,"byteOffset":57840,"componentType":5126,"count":54,"max":[-0.0015999999999999997,0.07740000000000001,-0.017617498702164674],"min":[-0.0064,0.0756,-0.02238250129783533],"type":"VEC3"},{"bufferView":0,"byteOffset":58488,"componentType":5126,"count":54,"max":[0.0064,0.07740000000000001,-0.00961749870216467],"min":[0.0015999999999999997,0.0756,-0.01438250129783533],"type":"VEC3"},{"bufferView":0,"byteOffset":59136,"componentType":5126,"count":54,"max":[0.0064,0.07740000000000001,-0.017617498702164674],"min":[0.0015999999999999997,0.0756,-0.02238250129783533],"type":"VEC3"},{"bufferView":0,"byteOffset":59784,"componentType":5126,"count":26,"max":[-0.0015999999999999997,0.07740000000000001,-0.00961749870216467],"min":[-0.0064,0.07740000000000001,-0.01438250129783533],"type":"VEC3"},{"bufferView":0,"byteOffset":60096,"componentType":5126,"count":26,"max":[-0.0015999999999999997,0.07740000000000001,-0.017617498702164674],"min":[-0.0064,0.07740000000000001,-0.02238250129783533],"type":"VEC3"},{"bufferView":0,"byteOffset":60408,"componentType":5126,"count":26,"max":[0.0064,0.07740000000000001,-0.00961749870216467],"min":[0.0015999999999999997,0.07740000000000001,-0.01438250129783533],"type":"VEC3"},{"bufferView":0,"byteOffset":60720,"componentType":5126,"count":26,"max":[0.0064,0.07740000000000001,-0.017617498702164674],"min":[0.0015999999999999997,0.07740000000000001,-0.02238250129783533],"type":"VEC3"},{"bufferView":1,"byteOffset":0,"componentType":5126,"count":4,"type":"VEC3"},{"bufferView":1,"byteOffset":48,"componentType":5126,"count":4,"type":"VEC3"},{"bufferView":1,"byteOffset":96,"componentType":5126,"count":164,"type":"VEC3"},{"bufferView":1,"byteOffset":2064,"componentType":5126,"count":4,"type":"VEC3"},{"bufferView":1,"byteOffset":2112,"componentType":5126,"count":4,"type":"VEC3"},{"bufferView":1,"byteOffset":2160,"componentType":5126,"count":4,"type":"VEC3"},{"bufferView":1,"byteOffset":2208,"componentType":5126,"count":164,"type":"VEC3"},{"bufferView":1,"byteOffset":4176,"componentType":5126,"count":5,"type":"VEC3"},{"bufferView":1,"byteOffset":4236,"componentType":5126,"count":4,"type":"VEC3"},{"bufferView":1,"byteOffset":4284,"componentType":5126,"count":5,"type":"VEC3"},{"bufferView":1,"byteOffset":4344,"componentType":5126,"count":54,"type":"VEC3"},{"bufferView":1,"byteOffset":4992,"componentType":5126,"count":54,"type":"VEC3"},{"bufferView":1,"byteOffset":5640,"componentType":5126,"count":54,"type":"VEC3"},{"bufferView":1,"byteOffset":6288,"componentType":5126,"count":54,"type":"VEC3"},{"bufferView":1,"byteOffset":6936,"componentType":5126,"count":54,"type":"VEC3"},{"bufferView":1,"byteOffset":7584,"componentType":5126,"count":54,"type":"VEC3"},{"bufferView":1,"byteOffset":8232,"componentType":5126,"count":4,"type":"VEC3"},{"bufferView":1,"byteOffset":8280,"componentType":5126,"count":4,"type":"VEC3"},{"bufferView":1,"byteOffset":8328,"componentType":5126,"count":4,"type":"VEC3"},{"bufferView":1,"byteOffset":8376,"componentType":5126,"count":4,"type":"VEC3"},{"bufferView":1,"byteOffset":8424,"componentType":5126,"count":54,"type":"VEC3"},{"bufferView":1,"byteOffset":9072,"componentType":5126,"count":54,"type":"VEC3"},{"bufferView":1,"byteOffset":9720,"componentType":5126,"count":54,"type":"VEC3"},{"bufferView":1,"byteOffset":10368,"componentType":5126,"count":54,"type":"VEC3"},{"bufferView":1,"byteOffset":11016,"componentType":5126,"count":54,"type":"VEC3"},{"bufferView":1,"byteOffset":11664,"componentType":5126,"count":54,"type":"VEC3"},{"bufferView":1,"byteOffset":12312,"componentType":5126,"count":4,"type":"VEC3"},{"bufferView":1,"byteOffset":12360,"componentType":5126,"count":4,"type":"VEC3"},{"bufferView":1,"byteOffset":12408,"componentType":5126,"count":4,"type":"VEC3"},{"bufferView":1,"byteOffset":12456,"componentType":5126,"count":26,"type":"VEC3"},{"bufferView":1,"byteOffset":12768,"componentType":5126,"count":26,"type":"VEC3"},{"bufferView":1,"byteOffset":13080,"componentType":5126,"count":26,"type":"VEC3"},{"bufferView":1,"byteOffset":13392,"componentType":5126,"count":26,"type":"VEC3"},{"bufferView":1,"byteOffset":13704,"componentType":5126,"count":26,"type":"VEC3"},{"bufferView":1,"byteOffset":14016,"componentType":5126,"count":26,"type":"VEC3"},{"bufferView":1,"byteOffset":14328,"componentType":5126,"count":4,"type":"VEC3"},{"bufferView":1,"byteOffset":14376,"componentType":5126,"count":26,"type":"VEC3"},{"bufferView":1,"byteOffset":14688,"componentType":5126,"count":26,"type":"VEC3"},{"bufferView":1,"byteOffset":15000,"componentType":5126,"count":26,"type":"VEC3"},{"bufferView":1,"byteOffset":15312,"componentType":5126,"count":26,"type":"VEC3"},{"bufferView":1,"byteOffset":15624,"componentType":5126,"count":26,"type":"VEC3"},{"bufferView":1,"byteOffset":15936,"componentType":5126,"count":26,"type":"VEC3"},{"bufferView":1,"byteOffset":16248,"componentType":5126,"count":5,"type":"VEC3"},{"bufferView":1,"byteOffset":16308,"componentType":5126,"count":4,"type":"VEC3"},{"bufferView":1,"byteOffset":16356,"componentType":5126,"count":5,"type":"VEC3"},{"bufferView":1,"byteOffset":16416,"componentType":5126,"count":4,"type":"VEC3"},{"bufferView":1,"byteOffset":16464,"componentType":5126,"count":8,"type":"VEC3"},{"bufferView":1,"byteOffset":16560,"componentType":5126,"count":8,"type":"VEC3"},{"bufferView":1,"byteOffset":16656,"componentType":5126,"count":4,"type":"VEC3"},{"bufferView":1,"byteOffset":16704,"componentType":5126,"count":9,"type":"VEC3"},{"bufferView":1,"byteOffset":16812,"componentType":5126,"count":4,"type":"VEC3"},{"bufferView":1,"byteOffset":16860,"componentType":5126,"count":4,"type":"VEC3"},{"bufferView":1,"byteOffset":16908,"componentType":5126,"count":4,"type":"VEC3"},{"bufferView":1,"byteOffset":16956,"componentType":5126,"count":9,"type":"VEC3"},{"bufferView":1,"byteOffset":17064,"componentType":5126,"count":56,"type":"VEC3"},{"bufferView":1,"byteOffset":17736,"componentType":5126,"count":56,"type":"VEC3"},{"bufferView":1,"byteOffset":18408,"componentType":5126,"count":14,"type":"VEC3"},{"bufferView":1,"byteOffset":18576,"componentType":5126,"count":4,"type":"VEC3"},{"bufferView":1,"byteOffset":18624,"componentType":5126,"count":4,"type":"VEC3"},{"bufferView":1,"byteOffset":18672,"componentType":5126,"count":14,"type":"VEC3"},{"bufferView":1,"byteOffset":18840,"componentType":5126,"count":56,"type":"VEC3"},{"bufferView":1,"byteOffset":19512,"componentType":5126,"count":56,"type":"VEC3"},{"bufferView":1,"byteOffset":20184,"componentType":5126,"count":4,"type":"VEC3"},{"bufferView":1,"byteOffset":20232,"componentType":5126,"count":4,"type":"VEC3"},{"bufferView":1,"byteOffset":20280,"componentType":5126,"count":54,"type":"VEC3"},{"bufferView":1,"byteOffset":20928,"componentType":5126,"count":54,"type":"VEC3"},{"bufferView":1,"byteOffset":21576,"componentType":5126,"count":54,"type":"VEC3"},{"bufferView":1,"byteOffset":22224,"componentType":5126,"count":54,"type":"VEC3"},{"bufferView":1,"byteOffset":22872,"componentType":5126,"count":4,"type":"VEC3"},{"bufferView":1,"byteOffset":22920,"componentType":5126,"count":30,"type":"VEC3"},{"bufferView":1,"byteOffset":23280,"componentType":5126,"count":14,"type":"VEC3"},{"bufferView":1,"byteOffset":23448,"componentType":5126,"count":4,"type":"VEC3"},{"bufferView":1,"byteOffset":23496,"componentType":5126,"count":4,"type":"VEC3"},{"bufferView":1,"byteOffset":23544,"componentType":5126,"count":14,"type":"VEC3"},{"bufferView":1,"byteOffset":23712,"componentType":5126,"count":30,"type":"VEC3"},{"bufferView":1,"byteOffset":24072,"componentType":5126,"count":4,"type":"VEC3"},{"bufferView":1,"byteOffset":24120,"componentType":5126,"count":4,"type":"VEC3"},{"bufferView":1,"byteOffset":24168,"componentType":5126,"count":30,"type":"VEC3"},{"bufferView":1,"byteOffset":24528,"componentType":5126,"count":4,"type":"VEC3"},{"bufferView":1,"byteOffset":24576,"componentType":5126,"count":4,"type":"VEC3"},{"bufferView":1,"byteOffset":24624,"componentType":5126,"count":30,"type":"VEC3"},{"bufferView":1,"byteOffset":24984,"componentType":5126,"count":4,"type":"VEC3"},{"bufferView":1,"byteOffset":25032,"componentType":5126,"count":54,"type":"VEC3"},{"bufferView":1,"byteOffset":25680,"componentType":5126,"count":54,"type":"VEC3"},{"bufferView":1,"byteOffset":26328,"componentType":5126,"count":54,"type":"VEC3"},{"bufferView":1,"byteOffset":26976,"componentType":5126,"count":54,"type":"VEC3"},{"bufferView":1,"byteOffset":27624,"componentType":5126,"count":26,"type":"VEC3"},{"bufferView":1,"byteOffset":27936,"componentType":5126,"count":26,"type":"VEC3"},{"bufferView":1,"byteOffset":28248,"componentType":5126,"count":26,"type":"VEC3"},{"bufferView":1,"byteOffset":28560,"componentType":5126,"count":26,"type":"VEC3"},{"bufferView":1,"byteOffset":28872,"componentType":5126,"count":54,"type":"VEC3"},{"bufferView":1,"byteOffset":29520,"componentType":5126,"count":56,"type":"VEC3"},{"bufferView":1,"byteOffset":30192,"componentType":5126,"count":13,"type":"VEC3"},{"bufferView":1,"byteOffset":30348,"componentType":5126,"count":4,"type":"VEC3"},{"bufferView":1,"byteOffset":30396,"componentType":5126,"count":4,"type":"VEC3"},{"bufferView":1,"byteOffset":30444,"componentType":5126,"count":13,"type":"VEC3"},{"bufferView":1,"byteOffset":30600,"componentType":5126,"count":56,"type":"VEC3"},{"bufferView":1,"byteOffset":31272,"componentType":5126,"count":4,"type":"VEC3"},{"bufferView":1,"byteOffset":31320,"componentType":5126,"count":4,"type":"VEC3"},{"bufferView":1,"byteOffset":31368,"componentType":5126,"count":4,"type":"VEC3"},{"bufferView":1,"byteOffset":31416,"componentType":5126,"count":56,"type":"VEC3"},{"bufferView":1,"byteOffset":32088,"componentType":5126,"count":4,"type":"VEC3"},{"bufferView":1,"byteOffset":32136,"componentType":5126,"count":4,"type":"VEC3"},{"bufferView":1,"byteOffset":32184,"componentType":5126,"count":56,"type":"VEC3"},{"bufferView":1,"byteOffset":32856,"componentType":5126,"count":4,"type":"VEC3"},{"bufferView":1,"byteOffset":32904,"componentType":5126,"count":54,"type":"VEC3"},{"bufferView":1,"byteOffset":33552,"componentType":5126,"count":54,"type":"VEC3"},{"bufferView":1,"byteOffset":34200,"componentType":5126,"count":54,"type":"VEC3"},{"bufferView":1,"byteOffset":34848,"componentType":5126,"count":26,"type":"VEC3"},{"bufferView":1,"byteOffset":35160,"componentType":5126,"count":26,"type":"VEC3"},{"bufferView":1,"byteOffset":35472,"componentType":5126,"count":26,"type":"VEC3"},{"bufferView":1,"byteOffset":35784,"componentType":5126,"count":26,"type":"VEC3"},{"bufferView":1,"byteOffset":36096,"componentType":5126,"count":26,"type":"VEC3"},{"bufferView":1,"byteOffset":36408,"componentType":5126,"count":54,"type":"VEC3"},{"bufferView":1,"byteOffset":37056,"componentType":5126,"count":54,"type":"VEC3"},{"bufferView":1,"byteOffset":37704,"componentType":5126,"count":4,"type":"VEC3"},{"bufferView":1,"byteOffset":37752,"componentType":5126,"count":56,"type":"VEC3"},{"bufferView":1,"byteOffset":38424,"componentType":5126,"count":4,"type":"VEC3"},{"bufferView":1,"byteOffset":38472,"componentType":5126,"count":56,"type":"VEC3"},{"bufferView":1,"byteOffset":39144,"componentType":5126,"count":4,"type":"VEC3"},{"bufferView":1,"byteOffset":39192,"componentType":5126,"count":4,"type":"VEC3"},{"bufferView":1,"byteOffset":39240,"componentType":5126,"count":56,"type":"VEC3"},{"bufferView":1,"byteOffset":39912,"componentType":5126,"count":4,"type":"VEC3"},{"bufferView":1,"byteOffset":39960,"componentType":5126,"count":56,"type":"VEC3"},{"bufferView":1,"byteOffset":40632,"componentType":5126,"count":4,"type":"VEC3"},{"bufferView":1,"byteOffset":40680,"componentType":5126,"count":54,"type":"VEC3"},{"bufferView":1,"byteOffset":41328,"componentType":5126,"count":54,"type":"VEC3"},{"bufferView":1,"byteOffset":41976,"componentType":5126,"count":54,"type":"VEC3"},{"bufferView":1,"byteOffset":42624,"componentType":5126,"count":54,"type":"VEC3"},{"bufferView":1,"byteOffset":43272,"componentType":5126,"count":54,"type":"VEC3"},{"bufferView":1,"byteOffset":43920,"componentType":5126,"count":54,"type":"VEC3"},{"bufferView":1,"byteOffset":44568,"componentType":5126,"count":26,"type":"VEC3"},{"bufferView":1,"byteOffset":44880,"componentType":5126,"count":26,"type":"VEC3"},{"bufferView":1,"byteOffset":45192,"componentType":5126,"count":26,"type":"VEC3"},{"bufferView":1,"byteOffset":45504,"componentType":5126,"count":26,"type":"VEC3"},{"bufferView":1,"byteOffset":45816,"componentType":5126,"count":26,"type":"VEC3"},{"bufferView":1,"byteOffset":46128,"componentType":5126,"count":5,"type":"VEC3"},{"bufferView":1,"byteOffset":46188,"componentType":5126,"count":54,"type":"VEC3"},{"bufferView":1,"byteOffset":46836,"componentType":5126,"count":54,"type":"VEC3"},{"bufferView":1,"byteOffset":47484,"componentType":5126,"count":4,"type":"VEC3"},{"bufferView":1,"byteOffset":47532,"componentType":5126,"count":5,"type":"VEC3"},{"bufferView":1,"byteOffset":47592,"componentType":5126,"count":54,"type":"VEC3"},{"bufferView":1,"byteOffset":48240,"componentType":5126,"count":54,"type":"VEC3"},{"bufferView":1,"byteOffset":48888,"componentType":5126,"count":54,"type":"VEC3"},{"bufferView":1,"byteOffset":49536,"componentType":5126,"count":54,"type":"VEC3"},{"bufferView":1,"byteOffset":50184,"componentType":5126,"count":4,"type":"VEC3"},{"bufferView":1,"byteOffset":50232,"componentType":5126,"count":54,"type":"VEC3"},{"bufferView":1,"byteOffset":50880,"componentType":5126,"count":54,"type":"VEC3"},{"bufferView":1,"byteOffset":51528,"componentType":5126,"count":26,"type":"VEC3"},{"bufferView":1,"byteOffset":51840,"componentType":5126,"count":26,"type":"VEC3"},{"bufferView":1,"byteOffset":52152,"componentType":5126,"count":26,"type":"VEC3"},{"bufferView":1,"byteOffset":52464,"componentType":5126,"count":26,"type":"VEC3"},{"bufferView":1,"byteOffset":52776,"componentType":5126,"count":26,"type":"VEC3"},{"bufferView":1,"byteOffset":53088,"componentType":5126,"count":26,"type":"VEC3"},{"bufferView":1,"byteOffset":53400,"componentType":5126,"count":108,"type":"VEC3"},{"bufferView":1,"byteOffset":54696,"componentType":5126,"count":26,"type":"VEC3"},{"bufferView":1,"byteOffset":55008,"componentType":5126,"count":26,"type":"VEC3"},{"bufferView":1,"byteOffset":55320,"componentType":5126,"count":26,"type":"VEC3"},{"bufferView":1,"byteOffset":55632,"componentType":5126,"count":26,"type":"VEC3"},{"bufferView":1,"byteOffset":55944,"componentType":5126,"count":26,"type":"VEC3"},{"bufferView":1,"byteOffset":56256,"componentType":5126,"count":26,"type":"VEC3"},{"bufferView":1,"byteOffset":56568,"componentType":5126,"count":26,"type":"VEC3"},{"bufferView":1,"byteOffset":56880,"componentType":5126,"count":26,"type":"VEC3"},{"bufferView":1,"byteOffset":57192,"componentType":5126,"count":54,"type":"VEC3"},{"bufferView":1,"byteOffset":57840,"componentType":5126,"count":54,"type":"VEC3"},{"bufferView":1,"byteOffset":58488,"componentType":5126,"count":54,"type":"VEC3"},{"bufferView":1,"byteOffset":59136,"componentType":5126,"count":54,"type":"VEC3"},{"bufferView":1,"byteOffset":59784,"componentType":5126,"count":26,"type":"VEC3"},{"bufferView":1,"byteOffset":60096,"componentType":5126,"count":26,"type":"VEC3"},{"bufferView":1,"byteOffset":60408,"componentType":5126,"count":26,"type":"VEC3"},{"bufferView":1,"byteOffset":60720,"componentType":5126,"count":26,"type":"VEC3"},{"bufferView":2,"byteOffset":0,"componentType":5123,"count":6,"type":"SCALAR"},{"bufferView":2,"byteOffset":12,"componentType":5123,"count":6,"type":"SCALAR"},{"bufferView":2,"byteOffset":24,"componentType":5123,"count":522,"type":"SCALAR"},{"bufferView":2,"byteOffset":1068,"componentType":5123,"count":6,"type":"SCALAR"},{"bufferView":2,"byteOffset":1080,"componentType":5123,"count":6,"type":"SCALAR"},{"bufferView":2,"byteOffset":1092,"componentType":5123,"count":6,"type":"SCALAR"},{"bufferView":2,"byteOffset":1104,"componentType":5123,"count":522,"type":"SCALAR"},{"bufferView":2,"byteOffset":2148,"componentType":5123,"count":9,"type":"SCALAR"},{"bufferView":2,"byteOffset":2168,"componentType":5123,"count":6,"type":"SCALAR"},{"bufferView":2,"byteOffset":2180,"componentType":5123,"count":9,"type":"SCALAR"},{"bufferView":2,"byteOffset":2200,"componentType":5123,"count":156,"type":"SCALAR"},{"bufferView":2,"byteOffset":2512,"componentType":5123,"count":156,"type":"SCALAR"},{"bufferView":2,"byteOffset":2824,"componentType":5123,"count":156,"type":"SCALAR"},{"bufferView":2,"byteOffset":3136,"componentType":5123,"count":156,"type":"SCALAR"},{"bufferView":2,"byteOffset":3448,"componentType":5123,"count":156,"type":"SCALAR"},{"bufferView":2,"byteOffset":3760,"componentType":5123,"count":156,"type":"SCALAR"},{"bufferView":2,"byteOffset":4072,"componentType":5123,"count":6,"type":"SCALAR"},{"bufferView":2,"byteOffset":4084,"componentType":5123,"count":6,"type":"SCALAR"},{"bufferView":2,"byteOffset":4096,"componentType":5123,"count":6,"type":"SCALAR"},{"bufferView":2,"byteOffset":4108,"componentType":5123,"count":6,"type":"SCALAR"},{"bufferView":2,"byteOffset":4120,"componentType":5123,"count":156,"type":"SCALAR"},{"bufferView":2,"byteOffset":4432,"componentType":5123,"count":156,"type":"SCALAR"},{"bufferView":2,"byteOffset":4744,"componentType":5123,"count":156,"type":"SCALAR"},{"bufferView":2,"byteOffset":5056,"componentType":5123,"count":156,"type":"SCALAR"},{"bufferView":2,"byteOffset":5368,"componentType":5123,"count":156,"type":"SCALAR"},{"bufferView":2,"byteOffset":5680,"componentType":5123,"count":156,"type":"SCALAR"},{"bufferView":2,"byteOffset":5992,"componentType":5123,"count":6,"type":"SCALAR"},{"bufferView":2,"byteOffset":6004,"componentType":5123,"count":6,"type":"SCALAR"},{"bufferView":2,"byteOffset":6016,"componentType":5123,"count":6,"type":"SCALAR"},{"bufferView":2,"byteOffset":6028,"componentType":5123,"count":72,"type":"SCALAR"},{"bufferView":2,"byteOffset":6172,"componentType":5123,"count":72,"type":"SCALAR"},{"bufferView":2,"byteOffset":6316,"componentType":5123,"count":72,"type":"SCALAR"},{"bufferView":2,"byteOffset":6460,"componentType":5123,"count":72,"type":"SCALAR"},{"bufferView":2,"byteOffset":6604,"componentType":5123,"count":72,"type":"SCALAR"},{"bufferView":2,"byteOffset":6748,"componentType":5123,"count":72,"type":"SCALAR"},{"bufferView":2,"byteOffset":6892,"componentType":5123,"count":6,"type":"SCALAR"},{"bufferView":2,"byteOffset":6904,"componentType":5123,"count":72,"type":"SCALAR"},{"bufferView":2,"byteOffset":7048,"componentType":5123,"count":72,"type":"SCALAR"},{"bufferView":2,"byteOffset":7192,"componentType":5123,"count":72,"type":"SCALAR"},{"bufferView":2,"byteOffset":7336,"componentType":5123,"count":72,"type":"SCALAR"},{"bufferView":2,"byteOffset":7480,"componentType":5123,"count":72,"type":"SCALAR"},{"bufferView":2,"byteOffset":7624,"componentType":5123,"count":72,"type":"SCALAR"},{"bufferView":2,"byteOffset":7768,"componentType":5123,"count":9,"type":"SCALAR"},{"bufferView":2,"byteOffset":7788,"componentType":5123,"count":6,"type":"SCALAR"},{"bufferView":2,"byteOffset":7800,"componentType":5123,"count":9,"type":"SCALAR"},{"bufferView":2,"byteOffset":7820,"componentType":5123,"count":6,"type":"SCALAR"},{"bufferView":2,"byteOffset":7832,"componentType":5123,"count":18,"type":"SCALAR"},{"bufferView":2,"byteOffset":7868,"componentType":5123,"count":18,"type":"SCALAR"},{"bufferView":2,"byteOffset":7904,"componentType":5123,"count":6,"type":"SCALAR"},{"bufferView":2,"byteOffset":7916,"componentType":5123,"count":21,"type":"SCALAR"},{"bufferView":2,"byteOffset":7960,"componentType":5123,"count":6,"type":"SCALAR"},{"bufferView":2,"byteOffset":7972,"componentType":5123,"count":6,"type":"SCALAR"},{"bufferView":2,"byteOffset":7984,"componentType":5123,"count":6,"type":"SCALAR"},{"bufferView":2,"byteOffset":7996,"componentType":5123,"count":21,"type":"SCALAR"},{"bufferView":2,"byteOffset":8040,"componentType":5123,"count":174,"type":"SCALAR"},{"bufferView":2,"byteOffset":8388,"componentType":5123,"count":174,"type":"SCALAR"},{"bufferView":2,"byteOffset":8736,"componentType":5123,"count":36,"type":"SCALAR"},{"bufferView":2,"byteOffset":8808,"componentType":5123,"count":6,"type":"SCALAR"},{"bufferView":2,"byteOffset":8820,"componentType":5123,"count":6,"type":"SCALAR"},{"bufferView":2,"byteOffset":8832,"componentType":5123,"count":36,"type":"SCALAR"},{"bufferView":2,"byteOffset":8904,"componentType":5123,"count":174,"type":"SCALAR"},{"bufferView":2,"byteOffset":9252,"componentType":5123,"count":174,"type":"SCALAR"},{"bufferView":2,"byteOffset":9600,"componentType":5123,"count":6,"type":"SCALAR"},{"bufferView":2,"byteOffset":9612,"componentType":5123,"count":6,"type":"SCALAR"},{"bufferView":2,"byteOffset":9624,"componentType":5123,"count":156,"type":"SCALAR"},{"bufferView":2,"byteOffset":9936,"componentType":5123,"count":156,"type":"SCALAR"},{"bufferView":2,"byteOffset":10248,"componentType":5123,"count":156,"type":"SCALAR"},{"bufferView":2,"byteOffset":10560,"componentType":5123,"count":156,"type":"SCALAR"},{"bufferView":2,"byteOffset":10872,"componentType":5123,"count":6,"type":"SCALAR"},{"bufferView":2,"byteOffset":10884,"componentType":5123,"count":90,"type":"SCALAR"},{"bufferView":2,"byteOffset":11064,"componentType":5123,"count":36,"type":"SCALAR"},{"bufferView":2,"byteOffset":11136,"componentType":5123,"count":6,"type":"SCALAR"},{"bufferView":2,"byteOffset":11148,"componentType":5123,"count":6,"type":"SCALAR"},{"bufferView":2,"byteOffset":11160,"componentType":5123,"count":36,"type":"SCALAR"},{"bufferView":2,"byteOffset":11232,"componentType":5123,"count":90,"type":"SCALAR"},{"bufferView":2,"byteOffset":11412,"componentType":5123,"count":6,"type":"SCALAR"},{"bufferView":2,"byteOffset":11424,"componentType":5123,"count":6,"type":"SCALAR"},{"bufferView":2,"byteOffset":11436,"componentType":5123,"count":90,"type":"SCALAR"},{"bufferView":2,"byteOffset":11616,"componentType":5123,"count":6,"type":"SCALAR"},{"bufferView":2,"byteOffset":11628,"componentType":5123,"count":6,"type":"SCALAR"},{"bufferView":2,"byteOffset":11640,"componentType":5123,"count":90,"type":"SCALAR"},{"bufferView":2,"byteOffset":11820,"componentType":5123,"count":6,"type":"SCALAR"},{"bufferView":2,"byteOffset":11832,"componentType":5123,"count":156,"type":"SCALAR"},{"bufferView":2,"byteOffset":12144,"componentType":5123,"count":156,"type":"SCALAR"},{"bufferView":2,"byteOffset":12456,"componentType":5123,"count":156,"type":"SCALAR"},{"bufferView":2,"byteOffset":12768,"componentType":5123,"count":156,"type":"SCALAR"},{"bufferView":2,"byteOffset":13080,"componentType":5123,"count":72,"type":"SCALAR"},{"bufferView":2,"byteOffset":13224,"componentType":5123,"count":72,"type":"SCALAR"},{"bufferView":2,"byteOffset":13368,"componentType":5123,"count":72,"type":"SCALAR"},{"bufferView":2,"byteOffset":13512,"componentType":5123,"count":72,"type":"SCALAR"},{"bufferView":2,"byteOffset":13656,"componentType":5123,"count":156,"type":"SCALAR"},{"bufferView":2,"byteOffset":13968,"componentType":5123,"count":174,"type":"SCALAR"},{"bufferView":2,"byteOffset":14316,"componentType":5123,"count":33,"type":"SCALAR"},{"bufferView":2,"byteOffset":14384,"componentType":5123,"count":6,"type":"SCALAR"},{"bufferView":2,"byteOffset":14396,"componentType":5123,"count":6,"type":"SCALAR"},{"bufferView":2,"byteOffset":14408,"componentType":5123,"count":33,"type":"SCALAR"},{"bufferView":2,"byteOffset":14476,"componentType":5123,"count":174,"type":"SCALAR"},{"bufferView":2,"byteOffset":14824,"componentType":5123,"count":6,"type":"SCALAR"},{"bufferView":2,"byteOffset":14836,"componentType":5123,"count":6,"type":"SCALAR"},{"bufferView":2,"byteOffset":14848,"componentType":5123,"count":6,"type":"SCALAR"},{"bufferView":2,"byteOffset":14860,"componentType":5123,"count":174,"type":"SCALAR"},{"bufferView":2,"byteOffset":15208,"componentType":5123,"count":6,"type":"SCALAR"},{"bufferView":2,"byteOffset":15220,"componentType":5123,"count":6,"type":"SCALAR"},{"bufferView":2,"byteOffset":15232,"componentType":5123,"count":174,"type":"SCALAR"},{"bufferView":2,"byteOffset":15580,"componentType":5123,"count":6,"type":"SCALAR"},{"bufferView":2,"byteOffset":15592,"componentType":5123,"count":156,"type":"SCALAR"},{"bufferView":2,"byteOffset":15904,"componentType":5123,"count":156,"type":"SCALAR"},{"bufferView":2,"byteOffset":16216,"componentType":5123,"count":156,"type":"SCALAR"},{"bufferView":2,"byteOffset":16528,"componentType":5123,"count":72,"type":"SCALAR"},{"bufferView":2,"byteOffset":16672,"componentType":5123,"count":72,"type":"SCALAR"},{"bufferView":2,"byteOffset":16816,"componentType":5123,"count":72,"type":"SCALAR"},{"bufferView":2,"byteOffset":16960,"componentType":5123,"count":72,"type":"SCALAR"},{"bufferView":2,"byteOffset":17104,"componentType":5123,"count":72,"type":"SCALAR"},{"bufferView":2,"byteOffset":17248,"componentType":5123,"count":156,"type":"SCALAR"},{"bufferView":2,"byteOffset":17560,"componentType":5123,"count":156,"type":"SCALAR"},{"bufferView":2,"byteOffset":17872,"componentType":5123,"count":6,"type":"SCALAR"},{"bufferView":2,"byteOffset":17884,"componentType":5123,"count":174,"type":"SCALAR"},{"bufferView":2,"byteOffset":18232,"componentType":5123,"count":6,"type":"SCALAR"},{"bufferView":2,"byteOffset":18244,"componentType":5123,"count":174,"type":"SCALAR"},{"bufferView":2,"byteOffset":18592,"componentType":5123,"count":6,"type":"SCALAR"},{"bufferView":2,"byteOffset":18604,"componentType":5123,"count":6,"type":"SCALAR"},{"bufferView":2,"byteOffset":18616,"componentType":5123,"count":174,"type":"SCALAR"},{"bufferView":2,"byteOffset":18964,"componentType":5123,"count":6,"type":"SCALAR"},{"bufferView":2,"byteOffset":18976,"componentType":5123,"count":174,"type":"SCALAR"},{"bufferView":2,"byteOffset":19324,"componentType":5123,"count":6,"type":"SCALAR"},{"bufferView":2,"byteOffset":19336,"componentType":5123,"count":156,"type":"SCALAR"},{"bufferView":2,"byteOffset":19648,"componentType":5123,"count":156,"type":"SCALAR"},{"bufferView":2,"byteOffset":19960,"componentType":5123,"count":156,"type":"SCALAR"},{"bufferView":2,"byteOffset":20272,"componentType":5123,"count":156,"type":"SCALAR"},{"bufferView":2,"byteOffset":20584,"componentType":5123,"count":156,"type":"SCALAR"},{"bufferView":2,"byteOffset":20896,"componentType":5123,"count":156,"type":"SCALAR"},{"bufferView":2,"byteOffset":21208,"componentType":5123,"count":72,"type":"SCALAR"},{"bufferView":2,"byteOffset":21352,"componentType":5123,"count":72,"type":"SCALAR"},{"bufferView":2,"byteOffset":21496,"componentType":5123,"count":72,"type":"SCALAR"},{"bufferView":2,"byteOffset":21640,"componentType":5123,"count":72,"type":"SCALAR"},{"bufferView":2,"byteOffset":21784,"componentType":5123,"count":72,"type":"SCALAR"},{"bufferView":2,"byteOffset":21928,"componentType":5123,"count":9,"type":"SCALAR"},{"bufferView":2,"byteOffset":21948,"componentType":5123,"count":156,"type":"SCALAR"},{"bufferView":2,"byteOffset":22260,"componentType":5123,"count":156,"type":"SCALAR"},{"bufferView":2,"byteOffset":22572,"componentType":5123,"count":6,"type":"SCALAR"},{"bufferView":2,"byteOffset":22584,"componentType":5123,"count":9,"type":"SCALAR"},{"bufferView":2,"byteOffset":22604,"componentType":5123,"count":156,"type":"SCALAR"},{"bufferView":2,"byteOffset":22916,"componentType":5123,"count":156,"type":"SCALAR"},{"bufferView":2,"byteOffset":23228,"componentType":5123,"count":156,"type":"SCALAR"},{"bufferView":2,"byteOffset":23540,"componentType":5123,"count":156,"type":"SCALAR"},{"bufferView":2,"byteOffset":23852,"componentType":5123,"count":6,"type":"SCALAR"},{"bufferView":2,"byteOffset":23864,"componentType":5123,"count":156,"type":"SCALAR"},{"bufferView":2,"byteOffset":24176,"componentType":5123,"count":156,"type":"SCALAR"},{"bufferView":2,"byteOffset":24488,"componentType":5123,"count":72,"type":"SCALAR"},{"bufferView":2,"byteOffset":24632,"componentType":5123,"count":72,"type":"SCALAR"},{"bufferView":2,"byteOffset":24776,"componentType":5123,"count":72,"type":"SCALAR"},{"bufferView":2,"byteOffset":24920,"componentType":5123,"count":72,"type":"SCALAR"},{"bufferView":2,"byteOffset":25064,"componentType":5123,"count":72,"type":"SCALAR"},{"bufferView":2,"byteOffset":25208,"componentType":5123,"count":72,"type":"SCALAR"},{"bufferView":2,"byteOffset":25352,"componentType":5123,"count":342,"type":"SCALAR"},{"bufferView":2,"byteOffset":26036,"componentType":5123,"count":72,"type":"SCALAR"},{"bufferView":2,"byteOffset":26180,"componentType":5123,"count":72,"type":"SCALAR"},{"bufferView":2,"byteOffset":26324,"componentType":5123,"count":72,"type":"SCALAR"},{"bufferView":2,"byteOffset":26468,"componentType":5123,"count":72,"type":"SCALAR"},{"bufferView":2,"byteOffset":26612,"componentType":5123,"count":72,"type":"SCALAR"},{"bufferView":2,"byteOffset":26756,"componentType":5123,"count":72,"type":"SCALAR"},{"bufferView":2,"byteOffset":26900,"componentType":5123,"count":72,"type":"SCALAR"},{"bufferView":2,"byteOffset":27044,"componentType":5123,"count":72,"type":"SCALAR"},{"bufferView":2,"byteOffset":27188,"componentType":5123,"count":156,"type":"SCALAR"},{"bufferView":2,"byteOffset":27500,"componentType":5123,"count":156,"type":"SCALAR"},{"bufferView":2,"byteOffset":27812,"componentType":5123,"count":156,"type":"SCALAR"},{"bufferView":2,"byteOffset":28124,"componentType":5123,"count":156,"type":"SCALAR"},{"bufferView":2,"byteOffset":28436,"componentType":5123,"count":72,"type":"SCALAR"},{"bufferView":2,"byteOffset":28580,"componentType":5123,"count":72,"type":"SCALAR"},{"bufferView":2,"byteOffset":28724,"componentType":5123,"count":72,"type":"SCALAR"},{"bufferView":2,"byteOffset":28868,"componentType":5123,"count":72,"type":"SCALAR"}],"asset":{"generator":"Open CASCADE Technology 7.8 [dev.opencascade.org]","version":"2.0"},"bufferViews":[{"buffer":0,"byteLength":61032,"byteOffset":0,"byteStride":12,"target":34962},{"buffer":0,"byteLength":61032,"byteOffset":61032,"byteStride":12,"target":34962},{"buffer":0,"byteLength":29012,"byteOffset":122064,"target":34963}],"buffers":[{"byteLength":151076,"uri":"Albero.bin"}],"materials":[{"name":"mat_0","pbrMetallicRoughness":{"baseColorFactor":[0.16826939582824708,0.19120168685913087,0.2158605307340622,1.0]},"doubleSided":true}],"meshes":[{"name":"Fusion004","primitives":[{"attributes":{"NORMAL":171,"POSITION":0},"indices":342,"material":0,"mode":4},{"attributes":{"NORMAL":172,"POSITION":1},"indices":343,"material":0,"mode":4},{"attributes":{"NORMAL":173,"POSITION":2},"indices":344,"material":0,"mode":4},{"attributes":{"NORMAL":174,"POSITION":3},"indices":345,"material":0,"mode":4},{"attributes":{"NORMAL":175,"POSITION":4},"indices":346,"material":0,"mode":4},{"attributes":{"NORMAL":176,"POSITION":5},"indices":347,"material":0,"mode":4},{"attributes":{"NORMAL":177,"POSITION":6},"indices":348,"material":0,"mode":4},{"attributes":{"NORMAL":178,"POSITION":7},"indices":349,"material":0,"mode":4},{"attributes":{"NORMAL":179,"POSITION":8},"indices":350,"material":0,"mode":4},{"attributes":{"NORMAL":180,"POSITION":9},"indices":351,"material":0,"mode":4},{"attributes":{"NORMAL":181,"POSITION":10},"indices":352,"material":0,"mode":4},{"attributes":{"NORMAL":182,"POSITION":11},"indices":353,"material":0,"mode":4},{"attributes":{"NORMAL":183,"POSITION":12},"indices":354,"material":0,"mode":4},{"attributes":{"NORMAL":184,"POSITION":13},"indices":355,"material":0,"mode":4},{"attributes":{"NORMAL":185,"POSITION":14},"indices":356,"material":0,"mode":4},{"attributes":{"NORMAL":186,"POSITION":15},"indices":357,"material":0,"mode":4},{"attributes":{"NORMAL":187,"POSITION":16},"indices":358,"material":0,"mode":4},{"attributes":{"NORMAL":188,"POSITION":17},"indices":359,"material":0,"mode":4},{"attributes":{"NORMAL":189,"POSITION":18},"indices":360,"material":0,"mode":4},{"attributes":{"NORMAL":190,"POSITION":19},"indices":361,"material":0,"mode":4},{"attributes":{"NORMAL":191,"POSITION":20},"indices":362,"material":0,"mode":4},{"attributes":{"NORMAL":192,"POSITION":21},"indices":363,"material":0,"mode":4},{"attributes":{"NORMAL":193,"POSITION":22},"indices":364,"material":0,"mode":4},{"attributes":{"NORMAL":194,"POSITION":23},"indices":365,"material":0,"mode":4},{"attributes":{"NORMAL":195,"POSITION":24},"indices":366,"material":0,"mode":4},{"attributes":{"NORMAL":196,"POSITION":25},"indices":367,"material":0,"mode":4},{"attributes":{"NORMAL":197,"POSITION":26},"indices":368,"material":0,"mode":4},{"attributes":{"NORMAL":198,"POSITION":27},"indices":369,"material":0,"mode":4},{"attributes":{"NORMAL":199,"POSITION":28},"indices":370,"material":0,"mode":4},{"attributes":{"NORMAL":200,"POSITION":29},"indices":371,"material":0,"mode":4},{"attributes":{"NORMAL":201,"POSITION":30},"indices":372,"material":0,"mode":4},{"attributes":{"NORMAL":202,"POSITION":31},"indices":373,"material":0,"mode":4},{"attributes":{"NORMAL":203,"POSITION":32},"indices":374,"material":0,"mode":4},{"attributes":{"NORMAL":204,"POSITION":33},"indices":375,"material":0,"mode":4},{"attributes":{"NORMAL":205,"POSITION":34},"indices":376,"material":0,"mode":4},{"attributes":{"NORMAL":206,"POSITION":35},"indices":377,"material":0,"mode":4},{"attributes":{"NORMAL":207,"POSITION":36},"indices":378,"material":0,"mode":4},{"attributes":{"NORMAL":208,"POSITION":37},"indices":379,"material":0,"mode":4},{"attributes":{"NORMAL":209,"POSITION":38},"indices":380,"material":0,"mode":4},{"attributes":{"NORMAL":210,"POSITION":39},"indices":381,"material":0,"mode":4},{"attributes":{"NORMAL":211,"POSITION":40},"indices":382,"material":0,"mode":4},{"attributes":{"NORMAL":212,"POSITION":41},"indices":383,"material":0,"mode":4},{"attributes":{"NORMAL":213,"POSITION":42},"indices":384,"material":0,"mode":4},{"attributes":{"NORMAL":214,"POSITION":43},"indices":385,"material":0,"mode":4},{"attributes":{"NORMAL":215,"POSITION":44},"indices":386,"material":0,"mode":4},{"attributes":{"NORMAL":216,"POSITION":45},"indices":387,"material":0,"mode":4},{"attributes":{"NORMAL":217,"POSITION":46},"indices":388,"material":0,"mode":4},{"attributes":{"NORMAL":218,"POSITION":47},"indices":389,"material":0,"mode":4},{"attributes":{"NORMAL":219,"POSITION":48},"indices":390,"material":0,"mode":4},{"attributes":{"NORMAL":220,"POSITION":49},"indices":391,"material":0,"mode":4},{"attributes":{"NORMAL":221,"POSITION":50},"indices":392,"material":0,"mode":4},{"attributes":{"NORMAL":222,"POSITION":51},"indices":393,"material":0,"mode":4},{"attributes":{"NORMAL":223,"POSITION":52},"indices":394,"material":0,"mode":4},{"attributes":{"NORMAL":224,"POSITION":53},"indices":395,"material":0,"mode":4},{"attributes":{"NORMAL":225,"POSITION":54},"indices":396,"material":0,"mode":4},{"attributes":{"NORMAL":226,"POSITION":55},"indices":397,"material":0,"mode":4},{"attributes":{"NORMAL":227,"POSITION":56},"indices":398,"material":0,"mode":4},{"attributes":{"NORMAL":228,"POSITION":57},"indices":399,"material":0,"mode":4},{"attributes":{"NORMAL":229,"POSITION":58},"indices":400,"material":0,"mode":4},{"attributes":{"NORMAL":230,"POSITION":59},"indices":401,"material":0,"mode":4},{"attributes":{"NORMAL":231,"POSITION":60},"indices":402,"material":0,"mode":4},{"attributes":{"NORMAL":232,"POSITION":61},"indices":403,"material":0,"mode":4},{"attributes":{"NORMAL":233,"POSITION":62},"indices":404,"material":0,"mode":4},{"attributes":{"NORMAL":234,"POSITION":63},"indices":405,"material":0,"mode":4},{"attributes":{"NORMAL":235,"POSITION":64},"indices":406,"material":0,"mode":4},{"attributes":{"NORMAL":236,"POSITION":65},"indices":407,"material":0,"mode":4},{"attributes":{"NORMAL":237,"POSITION":66},"indices":408,"material":0,"mode":4},{"attributes":{"NORMAL":238,"POSITION":67},"indices":409,"material":0,"mode":4},{"attributes":{"NORMAL":239,"POSITION":68},"indices":410,"material":0,"mode":4},{"attributes":{"NORMAL":240,"POSITION":69},"indices":411,"material":0,"mode":4},{"attributes":{"NORMAL":241,"POSITION":70},"indices":412,"material":0,"mode":4},{"attributes":{"NORMAL":242,"POSITION":71},"indices":413,"material":0,"mode":4},{"attributes":{"NORMAL":243,"POSITION":72},"indices":414,"material":0,"mode":4},{"attributes":{"NORMAL":244,"POSITION":73},"indices":415,"material":0,"mode":4},{"attributes":{"NORMAL":245,"POSITION":74},"indices":416,"material":0,"mode":4},{"attributes":{"NORMAL":246,"POSITION":75},"indices":417,"material":0,"mode":4},{"attributes":{"NORMAL":247,"POSITION":76},"indices":418,"material":0,"mode":4},{"attributes":{"NORMAL":248,"POSITION":77},"indices":419,"material":0,"mode":4},{"attributes":{"NORMAL":249,"POSITION":78},"indices":420,"material":0,"mode":4},{"attributes":{"NORMAL":250,"POSITION":79},"indices":421,"material":0,"mode":4},{"attributes":{"NORMAL":251,"POSITION":80},"indices":422,"material":0,"mode":4},{"attributes":{"NORMAL":252,"POSITION":81},"indices":423,"material":0,"mode":4},{"attributes":{"NORMAL":253,"POSITION":82},"indices":424,"material":0,"mode":4},{"attributes":{"NORMAL":254,"POSITION":83},"indices":425,"material":0,"mode":4},{"attributes":{"NORMAL":255,"POSITION":84},"indices":426,"material":0,"mode":4},{"attributes":{"NORMAL":256,"POSITION":85},"indices":427,"material":0,"mode":4},{"attributes":{"NORMAL":257,"POSITION":86},"indices":428,"material":0,"mode":4},{"attributes":{"NORMAL":258,"POSITION":87},"indices":429,"material":0,"mode":4},{"attributes":{"NORMAL":259,"POSITION":88},"indices":430,"material":0,"mode":4},{"attributes":{"NORMAL":260,"POSITION":89},"indices":431,"material":0,"mode":4},{"attributes":{"NORMAL":261,"POSITION":90},"indices":432,"material":0,"mode":4},{"attributes":{"NORMAL":262,"POSITION":91},"indices":433,"material":0,"mode":4},{"attributes":{"NORMAL":263,"POSITION":92},"indices":434,"material":0,"mode":4},{"attributes":{"NORMAL":264,"POSITION":93},"indices":435,"material":0,"mode":4},{"attributes":{"NORMAL":265,"POSITION":94},"indices":436,"material":0,"mode":4},{"attributes":{"NORMAL":266,"POSITION":95},"indices":437,"material":0,"mode":4},{"attributes":{"NORMAL":267,"POSITION":96},"indices":438,"material":0,"mode":4},{"attributes":{"NORMAL":268,"POSITION":97},"indices":439,"material":0,"mode":4},{"attributes":{"NORMAL":269,"POSITION":98},"indices":440,"material":0,"mode":4},{"attributes":{"NORMAL":270,"POSITION":99},"indices":441,"material":0,"mode":4},{"attributes":{"NORMAL":271,"POSITION":100},"indices":442,"material":0,"mode":4},{"attributes":{"NORMAL":272,"POSITION":101},"indices":443,"material":0,"mode":4},{"attributes":{"NORMAL":273,"POSITION":102},"indices":444,"material":0,"mode":4},{"attributes":{"NORMAL":274,"POSITION":103},"indices":445,"material":0,"mode":4},{"attributes":{"NORMAL":275,"POSITION":104},"indices":446,"material":0,"mode":4},{"attributes":{"NORMAL":276,"POSITION":105},"indices":447,"material":0,"mode":4},{"attributes":{"NORMAL":277,"POSITION":106},"indices":448,"material":0,"mode":4},{"attributes":{"NORMAL":278,"POSITION":107},"indices":449,"material":0,"mode":4},{"attributes":{"NORMAL":279,"POSITION":108},"indices":450,"material":0,"mode":4},{"attributes":{"NORMAL":280,"POSITION":109},"indices":451,"material":0,"mode":4},{"attributes":{"NORMAL":281,"POSITION":110},"indices":452,"material":0,"mode":4},{"attributes":{"NORMAL":282,"POSITION":111},"indices":453,"material":0,"mode":4},{"attributes":{"NORMAL":283,"POSITION":112},"indices":454,"material":0,"mode":4},{"attributes":{"NORMAL":284,"POSITION":113},"indices":455,"material":0,"mode":4},{"attributes":{"NORMAL":285,"POSITION":114},"indices":456,"material":0,"mode":4},{"attributes":{"NORMAL":286,"POSITION":115},"indices":457,"material":0,"mode":4},{"attributes":{"NORMAL":287,"POSITION":116},"indices":458,"material":0,"mode":4},{"attributes":{"NORMAL":288,"POSITION":117},"indices":459,"material":0,"mode":4},{"attributes":{"NORMAL":289,"POSITION":118},"indices":460,"material":0,"mode":4},{"attributes":{"NORMAL":290,"POSITION":119},"indices":461,"material":0,"mode":4},{"attributes":{"NORMAL":291,"POSITION":120},"indices":462,"material":0,"mode":4},{"attributes":{"NORMAL":292,"POSITION":121},"indices":463,"material":0,"mode":4},{"attributes":{"NORMAL":293,"POSITION":122},"indices":464,"material":0,"mode":4},{"attributes":{"NORMAL":294,"POSITION":123},"indices":465,"material":0,"mode":4},{"attributes":{"NORMAL":295,"POSITION":124},"indices":466,"material":0,"mode":4},{"attributes":{"NORMAL":296,"POSITION":125},"indices":467,"material":0,"mode":4},{"attributes":{"NORMAL":297,"POSITION":126},"indices":468,"material":0,"mode":4},{"attributes":{"NORMAL":298,"POSITION":127},"indices":469,"material":0,"mode":4},{"attributes":{"NORMAL":299,"POSITION":128},"indices":470,"material":0,"mode":4},{"attributes":{"NORMAL":300,"POSITION":129},"indices":471,"material":0,"mode":4},{"attributes":{"NORMAL":301,"POSITION":130},"indices":472,"material":0,"mode":4},{"attributes":{"NORMAL":302,"POSITION":131},"indices":473,"material":0,"mode":4},{"attributes":{"NORMAL":303,"POSITION":132},"indices":474,"material":0,"mode":4},{"attributes":{"NORMAL":304,"POSITION":133},"indices":475,"material":0,"mode":4},{"attributes":{"NORMAL":305,"POSITION":134},"indices":476,"material":0,"mode":4},{"attributes":{"NORMAL":306,"POSITION":135},"indices":477,"material":0,"mode":4},{"attributes":{"NORMAL":307,"POSITION":136},"indices":478,"material":0,"mode":4},{"attributes":{"NORMAL":308,"POSITION":137},"indices":479,"material":0,"mode":4},{"attributes":{"NORMAL":309,"POSITION":138},"indices":480,"material":0,"mode":4},{"attributes":{"NORMAL":310,"POSITION":139},"indices":481,"material":0,"mode":4},{"attributes":{"NORMAL":311,"POSITION":140},"indices":482,"material":0,"mode":4},{"attributes":{"NORMAL":312,"POSITION":141},"indices":483,"material":0,"mode":4},{"attributes":{"NORMAL":313,"POSITION":142},"indices":484,"material":0,"mode":4},{"attributes":{"NORMAL":314,"POSITION":143},"indices":485,"material":0,"mode":4},{"attributes":{"NORMAL":315,"POSITION":144},"indices":486,"material":0,"mode":4},{"attributes":{"NORMAL":316,"POSITION":145},"indices":487,"material":0,"mode":4},{"attributes":{"NORMAL":317,"POSITION":146},"indices":488,"material":0,"mode":4},{"attributes":{"NORMAL":318,"POSITION":147},"indices":489,"material":0,"mode":4},{"attributes":{"NORMAL":319,"POSITION":148},"indices":490,"material":0,"mode":4},{"attributes":{"NORMAL":320,"POSITION":149},"indices":491,"material":0,"mode":4},{"attributes":{"NORMAL":321,"POSITION":150},"indices":492,"material":0,"mode":4},{"attributes":{"NORMAL":322,"POSITION":151},"indices":493,"material":0,"mode":4},{"attributes":{"NORMAL":323,"POSITION":152},"indices":494,"material":0,"mode":4},{"attributes":{"NORMAL":324,"POSITION":153},"indices":495,"material":0,"mode":4},{"attributes":{"NORMAL":325,"POSITION":154},"indices":496,"material":0,"mode":4},{"attributes":{"NORMAL":326,"POSITION":155},"indices":497,"material":0,"mode":4},{"attributes":{"NORMAL":327,"POSITION":156},"indices":498,"material":0,"mode":4},{"attributes":{"NORMAL":328,"POSITION":157},"indices":499,"material":0,"mode":4},{"attributes":{"NORMAL":329,"POSITION":158},"indices":500,"material":0,"mode":4},{"attributes":{"NORMAL":330,"POSITION":159},"indices":501,"material":0,"mode":4},{"attributes":{"NORMAL":331,"POSITION":160},"indices":502,"material":0,"mode":4},{"attributes":{"NORMAL":332,"POSITION":161},"indices":503,"material":0,"mode":4},{"attributes":{"NORMAL":333,"POSITION":162},"indices":504,"material":0,"mode":4},{"attributes":{"NORMAL":334,"POSITION":163},"indices":505,"material":0,"mode":4},{"attributes":{"NORMAL":335,"POSITION":164},"indices":506,"material":0,"mode":4},{"attributes":{"NORMAL":336,"POSITION":165},"indices":507,"material":0,"mode":4},{"attributes":{"NORMAL":337,"POSITION":166},"indices":508,"material":0,"mode":4},{"attributes":{"NORMAL":338,"POSITION":167},"indices":509,"material":0,"mode":4},{"attributes":{"NORMAL":339,"POSITION":168},"indices":510,"material":0,"mode":4},{"attributes":{"NORMAL":340,"POSITION":169},"indices":511,"material":0,"mode":4},{"attributes":{"NORMAL":341,"POSITION":170},"indices":512,"material":0,"mode":4}]}],"nodes":[{"mesh":0,"name":"Fusion004"}],"scene":0,"scenes":[{"nodes":[0]}]}